<?xml version="1.0" standalone="no"?>
<!DOCTYPE svg PUBLIC "-//W3C//DTD SVG 20010904//EN"
 "http://www.w3.org/TR/2001/REC-SVG-20010904/DTD/svg10.dtd">
<svg version="1.0" xmlns="http://www.w3.org/2000/svg"
 width="1024.000000pt" height="724.000000pt" viewBox="0 0 1024.000000 724.000000"
 preserveAspectRatio="xMidYMid meet">

<g transform="translate(0.000000,724.000000) scale(0.100000,-0.100000)"
fill="#000000" stroke="none">
<path d="M4642 6940 c-78 -167 -112 -300 -112 -439 0 -109 23 -192 85 -307 71
-134 88 -195 88 -319 0 -112 -23 -210 -72 -319 l-30 -65 41 -46 c23 -25 45
-45 50 -45 16 0 92 187 112 275 8 33 17 111 20 173 9 152 -13 244 -94 407 -41
81 -64 140 -71 183 -18 118 21 299 97 442 l34 65 -50 49 -49 50 -49 -104z"/>
<path d="M4087 6802 c-22 -24 -89 -155 -116 -226 -91 -244 -78 -440 42 -620
64 -97 89 -175 92 -294 3 -120 -16 -204 -72 -325 l-37 -78 51 -51 51 -51 47
96 c43 89 59 134 87 242 5 22 8 102 5 180 -5 160 -21 217 -97 340 -61 100 -78
142 -85 215 -13 128 36 315 115 443 16 27 30 54 30 61 0 14 -72 86 -86 86 -6
0 -18 -8 -27 -18z"/>
<path d="M5297 6803 c-47 -54 -138 -283 -157 -395 -28 -172 -7 -284 83 -446
41 -73 72 -143 82 -183 31 -133 11 -290 -56 -434 l-30 -65 43 -50 c24 -28 46
-50 50 -50 5 0 20 24 34 53 132 269 140 531 22 747 -23 41 -51 94 -64 117 -13
24 -29 73 -35 110 -21 122 21 306 105 457 l34 62 -43 47 c-25 26 -46 47 -48
47 -2 0 -11 -8 -20 -17z"/>
<path d="M4495 5166 c-364 -84 -626 -361 -686 -726 l-12 -70 -401 -2 -400 -3
-8 -45 c-32 -184 -26 -437 16 -633 127 -600 601 -1092 1200 -1247 163 -42 279
-53 480 -48 138 4 194 10 290 32 491 113 885 416 1116 859 127 244 181 471
181 770 l0 157 434 0 435 0 0 -67 c0 -149 -57 -290 -157 -391 -88 -89 -151
-116 -268 -117 -77 0 -98 4 -146 26 -31 15 -75 43 -97 64 l-41 37 -46 -37
c-25 -21 -45 -41 -45 -45 0 -11 91 -93 130 -117 97 -59 251 -80 366 -49 271
72 463 412 425 749 -6 48 -13 92 -16 97 -4 6 -213 10 -562 10 l-556 0 6 -37
c53 -333 5 -658 -140 -948 -220 -440 -623 -740 -1118 -832 -122 -23 -387 -22
-512 1 -720 132 -1232 705 -1279 1436 -4 53 -3 131 0 173 l8 77 352 0 352 0
18 -93 c102 -542 667 -856 1183 -658 202 78 377 241 469 436 61 128 75 190 81
347 5 119 3 150 -17 234 -42 182 -151 358 -298 480 -73 61 -233 143 -327 169
-83 23 -329 29 -410 11z m370 -140 c87 -23 211 -87 279 -144 122 -101 212
-244 252 -397 24 -93 24 -266 0 -355 -26 -99 -100 -240 -159 -305 l-52 -58
-60 74 c-32 41 -75 94 -95 119 -203 251 -360 450 -360 457 0 4 11 15 23 24 12
9 108 75 212 149 105 73 194 136 199 141 10 9 -61 119 -76 119 -5 0 -37 -20
-71 -44 -34 -24 -141 -99 -237 -166 -96 -68 -198 -140 -226 -161 -29 -21 -54
-35 -58 -32 -3 4 -6 131 -6 284 l0 278 53 15 c28 8 63 17 77 20 50 9 246 -2
305 -18z m-575 -721 c0 -344 -4 -625 -8 -625 -4 0 -22 10 -38 23 -250 184
-364 498 -289 792 22 86 86 210 146 283 54 65 155 152 177 152 9 0 12 -132 12
-625z m380 -132 c69 -87 151 -189 182 -228 167 -205 208 -258 208 -266 0 -11
-100 -61 -165 -82 -121 -39 -314 -41 -423 -3 l-37 13 -3 325 -2 324 52 37 c29
20 55 37 58 37 3 -1 61 -71 130 -157z"/>
<path d="M2349 2134 c-180 -55 -282 -240 -235 -423 65 -252 402 -345 595 -163
134 126 146 353 24 488 -86 95 -254 138 -384 98z m197 -133 c174 -79 159 -354
-23 -407 -132 -39 -255 47 -270 189 -6 59 18 130 60 176 54 58 156 77 233 42z"/>
<path d="M4364 2133 c-107 -31 -201 -132 -230 -244 -67 -263 169 -493 436
-425 114 29 194 97 242 203 29 64 31 185 4 263 -29 83 -123 172 -212 199 -77
24 -167 26 -240 4z m201 -132 c110 -51 155 -182 101 -297 -87 -186 -353 -146
-391 59 -32 171 137 309 290 238z"/>
<path d="M5470 2129 c-78 -27 -152 -94 -192 -176 -29 -59 -32 -75 -32 -152 0
-73 5 -96 28 -148 34 -75 94 -134 174 -171 49 -23 70 -26 152 -26 104 1 170
20 245 72 l40 28 3 147 3 147 -146 0 -145 0 0 -60 0 -59 73 -3 72 -3 3 -51 c3
-51 2 -52 -35 -69 -75 -36 -180 -29 -237 16 -105 82 -108 266 -7 352 74 62
192 60 284 -5 16 -11 23 -7 61 37 48 55 48 60 -10 96 -82 50 -234 63 -334 28z"/>
<path d="M1128 1800 l3 -340 69 0 70 0 0 108 0 108 40 39 c24 24 43 35 49 30
4 -6 45 -62 91 -125 124 -171 110 -160 202 -160 43 0 78 3 78 8 0 4 -64 92
-141 195 l-140 189 48 51 c26 29 50 54 53 57 3 3 43 45 90 93 l85 87 -86 0
-87 0 -132 -142 c-73 -79 -137 -144 -142 -146 -4 -2 -8 62 -8 142 l0 146 -72
0 -73 0 3 -340z"/>
<path d="M3252 1803 l3 -338 240 0 240 0 3 62 3 63 -171 2 -171 3 1 273 1 272
-76 0 -75 0 2 -337z"/>
<path d="M6455 1888 c-59 -139 -122 -288 -141 -331 -19 -43 -34 -82 -34 -87 0
-6 31 -10 69 -10 l69 0 27 68 c15 37 31 73 37 80 8 8 51 12 153 12 l142 0 30
-77 30 -78 72 -3 c47 -2 71 1 71 8 0 10 -154 379 -250 600 l-29 65 -69 3 -70
3 -107 -253z m224 -31 c22 -56 41 -106 41 -110 0 -4 -40 -7 -90 -7 -49 0 -90
3 -90 8 0 16 83 212 90 212 4 0 26 -46 49 -103z"/>
<path d="M7400 2135 c0 -3 0 -155 0 -337 l0 -333 172 1 c154 0 179 3 229 23
152 59 241 221 209 378 -27 128 -99 209 -227 252 -53 18 -86 21 -223 21 -88 0
-160 -2 -160 -5z m373 -154 c117 -72 124 -273 12 -350 -43 -29 -92 -40 -177
-41 l-68 0 0 211 0 211 98 -4 c80 -3 104 -8 135 -27z"/>
<path d="M8620 1993 c-34 -81 -69 -161 -76 -178 -49 -110 -144 -338 -144 -346
0 -5 31 -9 69 -9 l69 0 27 68 c15 37 31 73 37 80 15 17 283 17 295 0 4 -7 20
-42 34 -78 l27 -65 71 -3 c48 -2 71 1 71 8 0 10 -158 387 -250 600 l-29 65
-69 3 -69 3 -63 -148z m178 -135 c23 -57 42 -106 42 -110 0 -5 -41 -8 -91 -8
-91 0 -91 0 -85 24 10 41 78 196 85 196 4 0 26 -46 49 -102z"/>
<path d="M4096 1237 c-9 -7 -20 -32 -23 -55 -3 -26 -11 -42 -19 -42 -8 0 -14
-4 -14 -10 0 -5 7 -10 16 -10 15 0 16 -11 12 -85 -5 -79 -4 -85 13 -85 17 0
19 8 19 85 0 77 2 85 19 85 11 0 23 5 26 10 4 6 -5 10 -19 10 -23 0 -26 4 -26
34 0 37 19 59 46 54 9 -2 19 3 21 10 6 16 -48 16 -71 -1z"/>
<path d="M4230 1218 c-11 -18 -20 -43 -20 -55 0 -14 -6 -23 -15 -23 -8 0 -15
-4 -15 -10 0 -5 7 -10 16 -10 13 0 15 -13 13 -82 -2 -70 1 -84 14 -86 14 -3
17 10 19 85 3 85 4 88 26 86 12 -2 22 2 22 7 0 6 -11 10 -25 10 -20 0 -25 5
-25 26 0 43 18 67 46 60 17 -5 24 -2 24 9 0 10 -10 15 -30 15 -23 0 -35 -7
-50 -32z"/>
<path d="M5540 1198 l0 -53 -48 3 c-41 3 -54 -1 -80 -23 -94 -79 -9 -227 98
-172 20 11 27 11 35 0 23 -30 30 6 27 150 -2 120 -6 147 -18 147 -10 0 -14
-13 -14 -52z m-16 -74 c12 -5 16 -21 16 -69 0 -63 0 -63 -37 -80 -33 -16 -40
-16 -62 -4 -48 27 -53 92 -11 137 20 22 61 29 94 16z"/>
<path d="M5814 1243 c-18 -13 -34 -50 -34 -77 0 -16 -6 -26 -15 -26 -8 0 -15
-4 -15 -10 0 -5 7 -10 16 -10 15 0 16 -11 12 -85 -5 -79 -4 -85 13 -85 17 0
19 8 19 85 0 84 0 85 25 85 14 0 25 5 25 10 0 6 -11 10 -25 10 -20 0 -25 5
-25 26 0 36 18 66 39 62 10 -2 19 2 20 7 2 12 -40 18 -55 8z"/>
<path d="M6605 1198 l0 -52 -46 3 c-40 2 -52 -2 -83 -29 -32 -29 -36 -37 -36
-80 0 -42 4 -52 31 -74 34 -29 75 -33 105 -11 25 19 34 19 34 -1 0 -9 5 -14
11 -12 8 3 13 54 14 156 3 137 1 152 -14 152 -14 0 -17 -10 -16 -52z m-11 -74
c12 -5 16 -20 16 -64 0 -68 -21 -94 -77 -94 -44 0 -63 23 -63 76 0 66 61 106
124 82z"/>
<path d="M3640 1143 c-105 -53 -77 -203 38 -203 26 0 52 15 52 30 0 3 -16 4
-36 2 -73 -9 -110 42 -80 112 15 37 48 53 87 43 15 -4 19 -1 17 11 -4 24 -37
26 -78 5z"/>
<path d="M3843 1153 c-38 -8 -73 -59 -73 -106 1 -113 153 -148 205 -47 46 89
-28 176 -132 153z m96 -49 c53 -68 -9 -160 -89 -133 -36 13 -50 35 -50 80 0
74 95 109 139 53z"/>
<path d="M4381 1146 c-52 -29 -69 -121 -31 -169 32 -41 140 -50 140 -12 0 11
-6 12 -29 4 -37 -13 -80 5 -98 40 -17 35 -9 41 52 41 29 0 60 3 69 6 26 10 20
60 -10 83 -31 24 -59 26 -93 7z m81 -23 c25 -22 23 -41 -6 -54 -31 -14 -96 -3
-96 16 0 17 47 55 68 55 9 0 24 -7 34 -17z"/>
<path d="M4615 1151 c-77 -32 -86 -159 -14 -196 29 -16 67 -19 93 -9 31 12 15
22 -30 21 -37 -2 -49 2 -65 22 -10 13 -19 32 -19 42 0 16 8 19 56 19 30 0 64
5 75 10 26 15 24 46 -6 75 -24 25 -54 30 -90 16z m69 -27 c22 -22 20 -51 -4
-59 -27 -8 -100 4 -100 16 0 18 49 59 69 59 11 0 27 -7 35 -16z"/>
<path d="M4933 1150 c-13 -5 -23 -16 -23 -24 0 -13 4 -13 30 0 35 18 66 11 81
-18 12 -23 6 -33 -24 -34 -58 -3 -68 -5 -87 -24 -27 -27 -25 -62 5 -90 23 -22
29 -23 68 -13 27 8 46 8 53 2 7 -6 14 -6 16 -2 8 16 -7 182 -18 193 -15 15
-75 21 -101 10z m87 -120 c0 -16 1 -33 1 -37 1 -5 -10 -14 -25 -21 -55 -27
-103 38 -54 72 12 9 35 16 50 16 24 0 28 -4 28 -30z"/>
<path d="M5132 1055 c-1 -93 1 -105 16 -105 15 0 17 9 14 75 -5 89 4 105 59
105 49 0 59 -18 59 -109 0 -56 3 -71 15 -71 12 0 15 14 15 69 0 118 -28 154
-103 131 -28 -8 -43 -8 -50 -1 -21 21 -24 10 -25 -94z"/>
<path d="M5954 1145 c-81 -42 -75 -170 10 -198 92 -31 185 68 143 150 -21 40
-37 51 -82 58 -27 4 -51 0 -71 -10z m117 -49 c37 -59 1 -130 -65 -130 -89 0
-115 124 -33 159 41 17 76 7 98 -29z"/>
<path d="M6244 1154 c-12 -3 -34 -18 -49 -34 -50 -52 -32 -142 34 -170 82 -33
173 39 157 126 -11 57 -75 92 -142 78z m96 -51 c44 -56 5 -135 -65 -135 -69 0
-102 72 -61 135 15 22 25 27 61 27 36 0 48 -5 65 -27z"/>
<path d="M1600 1005 l0 -65 865 0 865 0 0 65 0 65 -865 0 -865 0 0 -65z"/>
<path d="M6890 1005 l0 -65 865 0 866 0 -3 63 -3 62 -862 3 -863 2 0 -65z"/>
</g>
</svg>
