<?xml version="1.0" standalone="no"?>
<!DOCTYPE svg PUBLIC "-//W3C//DTD SVG 20010904//EN"
 "http://www.w3.org/TR/2001/REC-SVG-20010904/DTD/svg10.dtd">
<svg version="1.0" xmlns="http://www.w3.org/2000/svg"
 width="575.000000pt" height="88.000000pt" viewBox="0 0 575.000000 88.000000"
 preserveAspectRatio="xMidYMid meet">

<g transform="translate(0.000000,88.000000) scale(0.100000,-0.100000)"
fill="#000000" stroke="none">
<path d="M3677 839 c-71 -20 -131 -40 -135 -43 -3 -3 9 -6 26 -6 52 0 72 -29
72 -105 l0 -65 -26 10 c-14 6 -51 10 -82 10 -102 -1 -187 -56 -238 -157 -27
-55 -29 -65 -29 -178 0 -111 2 -124 27 -170 31 -60 60 -89 110 -110 77 -32
155 -12 208 54 l30 36 0 -43 0 -42 123 1 c74 0 114 3 102 9 -50 20 -50 17 -55
440 l-5 397 -128 -38z m-57 -249 c19 -19 20 -33 20 -233 0 -191 -2 -216 -17
-229 -48 -42 -104 -26 -140 39 -63 112 -47 355 28 417 37 31 81 34 109 6z"/>
<path d="M308 851 c-209 -67 -336 -271 -300 -481 41 -238 251 -393 488 -359
351 50 488 496 226 741 -112 105 -274 144 -414 99z"/>
<path d="M3949 841 c-37 -38 -39 -88 -5 -128 20 -23 32 -28 71 -28 39 0 51 5
71 28 34 40 32 90 -5 128 -41 40 -91 40 -132 0z"/>
<path d="M1029 803 c-90 -81 -136 -249 -119 -436 29 -313 223 -445 348 -237
55 92 67 147 67 310 0 132 -3 152 -27 218 -45 123 -104 182 -185 182 -35 0
-50 -7 -84 -37z"/>
<path d="M1788 820 l32 -20 0 -365 0 -365 -32 -20 -33 -20 90 0 c86 1 89 1 62
16 -15 8 -32 26 -37 40 -11 28 -14 631 -4 621 4 -3 70 -156 148 -338 77 -183
146 -334 151 -336 6 -1 75 151 154 340 80 188 148 346 153 352 4 5 8 -135 8
-311 0 -344 -1 -353 -54 -374 -13 -5 39 -9 139 -9 143 0 157 1 129 13 -17 8
-34 21 -38 31 -8 22 -8 698 0 720 4 10 21 23 38 31 28 12 20 13 -95 14 l-125
0 -114 -267 c-111 -260 -114 -267 -126 -238 -7 17 -58 136 -113 265 l-100 235
-133 3 -133 2 33 -20z"/>
<path d="M1431 787 c-6 -8 -18 -42 -28 -78 -23 -83 -26 -443 -4 -529 16 -64
37 -110 51 -110 18 0 41 48 57 121 20 90 22 372 4 469 -21 115 -50 162 -80
127z"/>
<path d="M2874 621 c-154 -70 -211 -318 -113 -490 85 -149 304 -162 399 -24
21 31 62 134 56 141 -2 1 -25 -20 -52 -47 -56 -56 -102 -71 -165 -52 -78 24
-139 106 -139 189 l0 42 181 0 182 0 -6 50 c-11 91 -56 156 -132 191 -54 25
-156 25 -211 0z m149 -31 c30 -23 47 -74 47 -137 l0 -43 -105 0 c-103 0 -105
0 -105 23 0 50 31 126 61 151 37 31 68 33 102 6z"/>
<path d="M3978 606 c-101 -29 -134 -46 -89 -46 42 0 46 -20 49 -282 l4 -248
121 0 c111 1 119 2 91 14 -17 8 -34 21 -38 31 -3 9 -6 140 -6 291 0 213 -3
274 -12 273 -7 -1 -61 -15 -120 -33z"/>
<path d="M4280 608 c-105 -30 -143 -48 -103 -48 43 0 48 -21 53 -239 6 -235
12 -256 85 -291 78 -38 158 -21 213 46 l32 39 0 -43 0 -42 123 0 c104 0 118 2
97 13 -47 24 -50 43 -50 330 0 147 -1 267 -3 267 -11 0 -229 -69 -219 -69 6
-1 21 -10 32 -21 19 -19 20 -33 20 -214 l0 -195 -26 -20 c-35 -28 -67 -26
-101 3 l-28 24 -3 246 c-2 135 -6 246 -10 245 -4 0 -54 -14 -112 -31z"/>
<path d="M4900 606 c-98 -29 -111 -35 -87 -41 15 -4 32 -15 37 -25 6 -11 10
-124 10 -264 l0 -246 110 0 109 0 -24 25 -25 24 0 218 c1 156 4 223 13 234 20
26 55 40 82 33 52 -13 55 -28 55 -291 l0 -243 118 0 c101 0 114 2 92 13 l-25
13 -5 224 c-6 247 -2 265 54 284 32 12 77 -17 87 -55 4 -13 7 -126 8 -251 l1
-228 123 0 c111 1 119 2 91 14 -17 8 -34 21 -38 31 -3 9 -6 112 -6 228 0 187
-3 217 -20 254 -25 57 -69 83 -140 83 -67 0 -118 -23 -145 -67 -11 -18 -22
-32 -25 -32 -3 0 -12 14 -20 31 -22 43 -73 68 -138 68 -63 0 -101 -17 -136
-62 l-26 -33 0 48 c0 26 -3 47 -7 46 -5 0 -60 -15 -123 -33z"/>
</g>
</svg>
