<?xml version="1.0" standalone="no"?>
<!DOCTYPE svg PUBLIC "-//W3C//DTD SVG 20010904//EN"
 "http://www.w3.org/TR/2001/REC-SVG-20010904/DTD/svg10.dtd">
<svg version="1.0" xmlns="http://www.w3.org/2000/svg"
 width="850.000000pt" height="279.000000pt" viewBox="0 0 850.000000 279.000000"
 preserveAspectRatio="xMidYMid meet">

<g transform="translate(0.000000,279.000000) scale(0.100000,-0.100000)"
fill="#000000" stroke="none">
<path d="M1135 2769 c-9 -26 -12 -169 -5 -169 3 -1 24 -5 48 -9 37 -7 44 -6
53 12 6 11 9 43 6 71 -2 28 -1 61 4 73 10 27 7 29 -53 37 -42 6 -47 5 -53 -15z
m86 -69 c4 -36 4 -70 2 -77 -6 -16 -31 -24 -56 -18 -20 5 -22 13 -24 78 -3 77
4 89 47 85 23 -3 25 -8 31 -68z"/>
<path d="M1166 2691 c-3 -5 0 -11 8 -14 15 -6 26 1 26 15 0 11 -27 10 -34 -1z"/>
<path d="M1376 2655 c-12 -13 -32 -57 -44 -98 -12 -40 -30 -82 -41 -92 -12
-10 -18 -21 -16 -26 7 -11 110 -69 123 -69 23 0 52 45 72 114 12 39 31 81 42
93 11 12 17 26 14 31 -6 10 -111 72 -121 72 -3 0 -16 -11 -29 -25z m95 -36
l29 -20 -20 -37 c-10 -20 -27 -62 -36 -94 -13 -47 -20 -57 -42 -61 -26 -5 -75
13 -87 33 -3 5 3 27 15 49 11 22 20 47 20 55 0 9 7 34 16 56 14 34 21 40 46
40 16 0 43 -9 59 -21z"/>
<path d="M1420 2590 c0 -5 5 -10 10 -10 6 0 10 5 10 10 0 6 -4 10 -10 10 -5 0
-10 -4 -10 -10z"/>
<path d="M1375 2540 c-9 -15 14 -40 36 -40 21 0 25 20 7 38 -15 15 -35 15 -43
2z"/>
<path d="M1365 2450 c4 -6 11 -8 16 -5 14 9 11 15 -7 15 -8 0 -12 -5 -9 -10z"/>
<path d="M883 2553 c-59 -23 -63 -27 -63 -56 0 -20 15 -57 40 -97 22 -36 43
-80 46 -97 3 -18 9 -33 13 -33 3 0 34 10 69 22 60 22 62 24 62 59 0 25 -12 55
-39 97 -22 34 -43 77 -47 96 -3 20 -9 36 -13 35 -3 0 -34 -12 -68 -26z m67
-32 c0 -9 18 -43 40 -76 22 -33 40 -67 40 -75 -1 -20 -20 -44 -47 -58 -32 -18
-51 -15 -58 9 -4 12 -25 49 -46 82 -38 58 -49 97 -29 97 6 0 10 6 10 14 0 14
57 35 78 28 6 -2 12 -12 12 -21z"/>
<path d="M890 2490 c0 -5 5 -10 10 -10 6 0 10 5 10 10 0 6 -4 10 -10 10 -5 0
-10 -4 -10 -10z"/>
<path d="M910 2420 c0 -23 31 -27 49 -7 14 17 4 27 -26 27 -16 0 -23 -6 -23
-20z"/>
<path d="M533 2491 c-51 -37 -49 -54 13 -110 24 -22 44 -47 44 -55 0 -22 9
-20 53 9 49 34 47 57 -7 109 -24 22 -48 49 -53 59 -8 16 -12 15 -50 -12z m127
-109 c0 -12 -10 -28 -22 -36 -21 -15 -25 -14 -74 35 -55 54 -60 77 -21 104 18
12 24 10 68 -34 28 -27 49 -57 49 -69z"/>
<path d="M575 2419 c-10 -15 1 -23 20 -15 9 3 13 10 10 16 -8 13 -22 13 -30
-1z"/>
<path d="M1645 2397 c-8 -13 -22 -46 -30 -74 -8 -28 -24 -61 -34 -75 l-19 -24
54 -33 c53 -31 56 -32 74 -16 11 10 29 47 41 84 12 36 28 73 35 82 20 22 19
24 -30 53 -55 32 -71 33 -91 3z m90 -21 c18 -13 18 -16 3 -52 -9 -22 -22 -56
-28 -77 -15 -48 -51 -65 -86 -42 -13 8 -24 18 -24 22 0 7 49 143 56 154 8 14
58 10 79 -5z"/>
<path d="M1690 2349 c0 -5 5 -7 10 -4 6 3 10 8 10 11 0 2 -4 4 -10 4 -5 0 -10
-5 -10 -11z"/>
<path d="M1653 2304 c-6 -16 14 -36 31 -31 19 6 17 26 -4 37 -16 9 -22 8 -27
-6z"/>
<path d="M1160 2386 c-54 -13 -61 -35 -31 -95 12 -22 21 -54 21 -71 0 -30 1
-31 38 -25 82 14 88 25 52 104 -11 24 -20 54 -20 67 0 31 -7 33 -60 20z m51
-41 c4 -17 13 -45 20 -63 16 -40 4 -66 -33 -70 -22 -3 -27 4 -46 56 -28 74
-27 90 1 102 35 14 51 7 58 -25z"/>
<path d="M1177 2303 c-12 -11 -8 -23 8 -23 8 0 15 7 15 15 0 16 -12 20 -23 8z"/>
<path d="M767 2296 c-32 -12 -62 -28 -67 -35 -11 -19 3 -62 44 -128 20 -32 39
-73 42 -90 4 -18 7 -33 9 -33 11 0 121 43 131 51 19 16 9 52 -34 124 -20 32
-38 75 -41 94 -4 19 -11 35 -16 36 -6 2 -36 -7 -68 -19z m58 -28 c4 -13 25
-50 46 -84 21 -33 39 -67 39 -75 -1 -22 -24 -47 -54 -59 -39 -15 -43 -13 -54
19 -6 16 -26 52 -46 81 -20 29 -36 60 -36 69 1 23 23 49 51 60 37 15 47 13 54
-11z"/>
<path d="M770 2230 c0 -5 5 -10 10 -10 6 0 10 5 10 10 0 6 -4 10 -10 10 -5 0
-10 -4 -10 -10z"/>
<path d="M797 2183 c-4 -3 -7 -15 -7 -25 0 -29 44 -20 48 10 3 16 -2 22 -16
22 -10 0 -22 -3 -25 -7z"/>
<path d="M840 2100 c0 -5 5 -10 10 -10 6 0 10 5 10 10 0 6 -4 10 -10 10 -5 0
-10 -4 -10 -10z"/>
<path d="M1356 2281 c-11 -12 -23 -52 -30 -103 -7 -46 -21 -96 -30 -111 -18
-27 -18 -27 10 -38 58 -22 107 -39 115 -39 19 0 41 54 50 121 5 40 18 87 29
106 18 31 19 34 2 40 -9 3 -39 14 -65 25 -59 22 -60 22 -81 -1z m90 -26 c28
-11 35 -19 29 -32 -6 -16 -15 -63 -30 -159 -6 -37 -37 -48 -92 -31 -28 9 -33
14 -28 31 3 12 10 50 15 86 15 100 18 108 43 113 12 2 23 5 25 6 1 0 19 -6 38
-14z"/>
<path d="M1400 2220 c0 -5 5 -10 10 -10 6 0 10 5 10 10 0 6 -4 10 -10 10 -5 0
-10 -4 -10 -10z"/>
<path d="M1373 2154 c-10 -26 38 -47 52 -24 8 14 -13 40 -32 40 -7 0 -16 -7
-20 -16z"/>
<path d="M1375 2070 c3 -5 8 -10 11 -10 2 0 4 5 4 10 0 6 -5 10 -11 10 -5 0
-7 -4 -4 -10z"/>
<path d="M1958 2191 c-31 -27 -62 -51 -69 -53 -19 -6 40 -88 63 -88 10 0 40
20 66 43 26 24 55 47 65 50 18 7 18 10 -6 50 -14 23 -34 43 -44 45 -11 2 -42
-17 -75 -47z m90 13 c32 -22 26 -44 -28 -92 -39 -35 -53 -42 -74 -36 -47 12
-44 46 11 97 53 52 59 54 91 31z"/>
<path d="M1977 2154 c-8 -8 1 -24 14 -24 5 0 9 7 9 15 0 15 -12 20 -23 9z"/>
<path d="M475 2190 c-35 -36 -38 -42 -26 -63 7 -13 27 -32 44 -42 18 -10 46
-33 63 -51 l31 -33 44 45 43 44 -43 37 c-23 21 -58 53 -78 71 -19 17 -36 32
-37 32 -1 0 -19 -18 -41 -40z m80 -17 c18 -16 45 -36 59 -46 33 -23 33 -47 1
-77 l-24 -23 -36 32 c-20 17 -39 31 -43 31 -5 0 -18 9 -30 20 -22 21 -21 41 6
73 20 23 29 22 67 -10z"/>
<path d="M541 2126 c-9 -10 -9 -16 -1 -21 17 -10 37 12 24 25 -8 8 -15 6 -23
-4z"/>
<path d="M186 2137 c-15 -19 -26 -38 -26 -44 0 -14 42 -50 68 -58 12 -3 35
-17 51 -31 l29 -24 31 42 c30 40 30 42 13 61 -9 11 -36 28 -58 38 -23 10 -47
26 -54 34 -18 22 -26 19 -54 -18z m52 1 c7 -7 31 -21 55 -33 46 -22 57 -48 34
-79 -14 -19 -16 -19 -81 15 -69 36 -77 49 -50 87 17 25 25 27 42 10z"/>
<path d="M251 2086 c-9 -10 -9 -16 -1 -21 17 -10 37 12 24 25 -8 8 -15 6 -23
-4z"/>
<path d="M1717 2106 c-13 -14 -31 -52 -40 -84 -9 -32 -23 -65 -32 -72 -8 -7
-15 -16 -15 -20 0 -11 85 -60 104 -60 21 0 44 36 62 99 9 29 25 62 36 73 23
23 21 24 -45 62 l-47 27 -23 -25z m71 -22 c22 -15 30 -48 13 -59 -5 -3 -13
-20 -16 -38 -13 -59 -33 -87 -63 -87 -15 0 -35 7 -46 15 -17 13 -18 16 -3 47
8 18 21 53 28 77 8 26 21 46 33 51 29 12 29 12 54 -6z"/>
<path d="M1720 1996 c0 -17 27 -29 35 -16 4 6 3 15 0 20 -9 15 -35 12 -35 -4z"/>
<path d="M1092 2075 c-41 -6 -78 -18 -83 -26 -18 -28 -8 -89 26 -169 24 -56
35 -97 35 -131 0 -47 1 -49 28 -48 60 2 164 25 172 39 17 27 10 74 -25 160
-25 60 -35 99 -35 137 0 61 6 59 -118 38z m76 -27 c7 -7 12 -22 12 -34 0 -12
16 -59 35 -104 42 -97 43 -111 11 -145 -19 -21 -35 -27 -72 -28 l-46 -2 -13
51 c-8 28 -25 77 -39 108 -14 32 -26 69 -26 82 0 32 36 66 79 75 20 4 38 7 42
8 3 0 10 -4 17 -11z"/>
<path d="M1095 1990 c-3 -5 1 -10 9 -10 9 0 16 5 16 10 0 6 -4 10 -9 10 -6 0
-13 -4 -16 -10z"/>
<path d="M1116 1917 c-28 -20 -17 -52 18 -52 36 0 56 26 37 49 -16 19 -31 20
-55 3z"/>
<path d="M1157 1804 c-11 -11 3 -24 18 -18 8 4 12 10 9 15 -6 11 -18 12 -27 3z"/>
<path d="M411 1982 c-54 -46 -51 -68 17 -113 26 -17 57 -43 69 -58 l23 -26 41
42 c41 40 42 42 26 66 -9 13 -36 37 -60 52 -25 16 -51 39 -58 52 l-14 23 -44
-38z m51 -5 c7 -7 34 -28 61 -45 33 -23 47 -40 47 -56 0 -30 -36 -64 -54 -51
-8 6 -37 26 -65 45 -58 40 -69 77 -29 104 27 19 24 19 40 3z"/>
<path d="M473 1905 c-3 -9 -3 -18 0 -21 9 -9 27 6 27 22 0 19 -19 18 -27 -1z"/>
<path d="M1932 1925 c-35 -36 -71 -65 -78 -65 -20 0 -18 -7 22 -61 45 -62 58
-60 135 22 31 32 64 59 73 59 9 0 16 2 16 5 0 15 -76 105 -89 105 -7 0 -43
-29 -79 -65z m122 -1 c12 -16 7 -25 -43 -81 -31 -35 -63 -63 -72 -63 -18 0
-69 37 -69 50 0 4 27 37 61 73 58 61 62 64 86 52 13 -7 30 -21 37 -31z"/>
<path d="M1952 1874 c2 -11 11 -20 22 -22 13 -3 17 1 14 14 -2 11 -11 20 -22
22 -13 3 -17 -1 -14 -14z"/>
<path d="M728 1937 c-52 -32 -68 -47 -68 -65 0 -35 23 -72 84 -132 37 -36 60
-68 67 -93 l10 -38 37 22 c87 53 111 69 115 76 12 23 -20 80 -78 139 -38 37
-68 77 -73 96 -4 17 -12 33 -17 34 -6 2 -40 -16 -77 -39z m83 -29 c13 -18 47
-57 77 -86 49 -48 54 -56 48 -85 -7 -34 -36 -63 -75 -74 -17 -4 -26 -2 -30 8
-2 7 -35 46 -73 86 -37 39 -68 77 -68 83 0 24 32 70 58 84 37 21 38 20 63 -16z"/>
<path d="M750 1864 c0 -8 5 -12 10 -9 6 3 10 10 10 16 0 5 -4 9 -10 9 -5 0
-10 -7 -10 -16z"/>
<path d="M795 1816 c-22 -16 -14 -46 13 -46 25 0 46 25 38 45 -7 19 -26 19
-51 1z"/>
<path d="M860 1730 c0 -5 4 -10 9 -10 6 0 13 5 16 10 3 6 -1 10 -9 10 -9 0
-16 -4 -16 -10z"/>
<path d="M1370 1886 c-14 -23 -24 -64 -31 -123 -11 -104 -16 -120 -41 -152
-10 -14 -15 -28 -11 -32 4 -4 46 -22 92 -39 l84 -31 23 22 c29 28 41 64 49
159 4 52 14 89 31 119 13 25 21 48 17 51 -10 9 -163 60 -180 60 -6 0 -21 -15
-33 -34z m130 -22 c44 -18 45 -20 29 -61 -6 -15 -15 -67 -20 -114 -5 -47 -11
-93 -14 -101 -10 -25 -65 -35 -113 -20 -47 16 -61 34 -42 57 6 7 15 53 20 102
12 131 20 144 87 152 7 0 31 -6 53 -15z"/>
<path d="M1442 1819 c2 -7 10 -15 17 -17 8 -3 12 1 9 9 -2 7 -10 15 -17 17 -8
3 -12 -1 -9 -9z"/>
<path d="M1401 1737 c-17 -22 9 -49 44 -45 34 4 42 20 20 42 -20 19 -49 21
-64 3z"/>
<path d="M1400 1620 c0 -5 7 -10 15 -10 8 0 15 5 15 10 0 6 -7 10 -15 10 -8 0
-15 -4 -15 -10z"/>
<path d="M256 1797 c-15 -24 -24 -51 -21 -59 6 -16 10 -18 110 -64 33 -16 62
-29 65 -31 10 -6 60 85 55 100 -6 15 -30 28 -120 69 -27 12 -53 24 -57 26 -3
2 -18 -17 -32 -41z m110 -15 c75 -31 90 -56 61 -97 -16 -21 -9 -22 -134 31
-35 14 -42 38 -23 75 14 24 14 24 96 -9z"/>
<path d="M334 1749 c-10 -17 13 -36 27 -22 12 12 4 33 -11 33 -5 0 -12 -5 -16
-11z"/>
<path d="M1677 1782 c-15 -15 -38 -61 -52 -102 -14 -41 -36 -86 -50 -100 -14
-14 -25 -29 -25 -32 0 -10 126 -88 142 -88 27 0 65 55 88 127 13 41 34 81 52
100 l30 31 -68 46 c-38 25 -74 46 -80 46 -5 0 -22 -13 -37 -28z m106 -37 c29
-19 35 -43 15 -63 -7 -7 -27 -50 -43 -95 -28 -74 -33 -82 -59 -85 -32 -4 -79
13 -97 34 -9 11 -7 20 6 40 9 15 28 58 41 96 13 39 28 76 34 83 15 18 70 12
103 -10z"/>
<path d="M1725 1710 c3 -5 10 -10 16 -10 5 0 9 5 9 10 0 6 -7 10 -16 10 -8 0
-12 -4 -9 -10z"/>
<path d="M1677 1653 c-24 -23 22 -64 48 -43 11 9 12 17 4 31 -10 19 -39 26
-52 12z"/>
<path d="M1656 1562 c-3 -6 -1 -14 5 -17 15 -10 25 3 12 16 -7 7 -13 7 -17 1z"/>
<path d="M2335 1788 c-11 -6 -38 -28 -61 -48 -22 -20 -47 -39 -55 -42 -12 -4
-11 -11 5 -42 28 -53 40 -60 73 -42 15 8 44 30 62 50 19 20 41 36 48 36 19 0
16 16 -13 60 -29 44 -30 44 -59 28z m42 -34 l27 -27 -56 -53 c-60 -58 -85 -62
-108 -19 -12 22 -9 27 41 74 30 28 58 50 62 51 4 0 20 -12 34 -26z"/>
<path d="M2302 1706 c1 -10 8 -17 13 -17 15 1 12 24 -3 29 -9 3 -13 -2 -10
-12z"/>
<path d="M2035 1738 c-11 -6 -42 -29 -68 -50 -27 -21 -60 -38 -73 -38 -13 0
-24 -4 -24 -9 0 -14 48 -119 57 -124 14 -9 79 19 119 51 21 17 55 37 76 44
l36 13 -28 63 c-30 66 -50 76 -95 50z m51 -26 c27 -22 45 -55 36 -69 -4 -5
-18 -16 -31 -23 -13 -6 -44 -27 -68 -46 -53 -41 -66 -42 -98 -9 -34 33 -32 61
6 80 17 9 51 32 76 51 51 39 51 39 79 16z"/>
<path d="M2065 1670 c3 -5 8 -10 11 -10 2 0 4 5 4 10 0 6 -5 10 -11 10 -5 0
-7 -4 -4 -10z"/>
<path d="M1993 1644 c-3 -8 1 -23 10 -32 15 -14 17 -14 23 1 8 21 -1 47 -16
47 -6 0 -13 -7 -17 -16z"/>
<path d="M1945 1590 c3 -5 8 -10 11 -10 2 0 4 5 4 10 0 6 -5 10 -11 10 -5 0
-7 -4 -4 -10z"/>
<path d="M565 1686 c-46 -40 -49 -45 -38 -69 6 -14 29 -38 49 -54 53 -39 100
-85 106 -103 6 -18 108 67 108 91 0 21 -34 57 -93 98 -27 18 -52 44 -57 57 -5
13 -13 24 -18 24 -4 0 -30 -20 -57 -44z m159 -79 c31 -24 35 -32 30 -55 -14
-56 -57 -79 -85 -45 -8 9 -38 34 -67 55 -47 35 -53 43 -47 66 3 15 17 37 31
50 l26 23 37 -33 c21 -18 55 -46 75 -61z"/>
<path d="M595 1640 c-3 -5 -1 -10 4 -10 6 0 11 5 11 10 0 6 -2 10 -4 10 -3 0
-8 -4 -11 -10z"/>
<path d="M648 1609 c-10 -6 -18 -17 -18 -24 0 -20 39 -19 47 1 8 22 -8 35 -29
23z"/>
<path d="M17 1673 c-15 -53 -17 -91 -5 -100 7 -6 54 -13 105 -15 l91 -4 10 50
c14 66 2 76 -87 76 -36 0 -76 3 -88 6 -15 4 -23 1 -26 -13z m115 -13 c64 0 85
-19 70 -60 -7 -20 -16 -23 -81 -25 -77 -2 -101 9 -101 45 0 36 12 52 34 46 11
-3 47 -6 78 -6z"/>
<path d="M100 1620 c0 -11 7 -20 15 -20 8 0 15 9 15 20 0 11 -7 20 -15 20 -8
0 -15 -9 -15 -20z"/>
<path d="M1163 1614 c-3 -9 -2 -62 2 -117 13 -162 12 -181 -7 -185 -28 -6 -84
55 -123 135 -22 43 -50 93 -62 111 -25 33 -60 43 -69 19 -3 -8 26 -81 64 -163
40 -86 65 -151 59 -153 -6 -2 -57 45 -113 104 -89 94 -105 107 -118 96 -38
-32 -15 -77 104 -207 50 -54 86 -100 80 -102 -5 -2 -42 17 -82 42 -71 46 -101
55 -113 36 -15 -24 41 -85 138 -147 150 -98 199 -158 217 -266 11 -68 -3 -345
-36 -740 l-7 -77 187 0 c102 0 186 4 186 8 0 5 -9 56 -20 115 -25 138 -50 387
-50 502 0 240 64 466 186 661 57 91 67 129 35 139 -30 9 -50 -5 -92 -67 -41
-60 -115 -118 -152 -118 -52 0 -71 34 -118 215 -17 66 -38 132 -45 148 -16 30
-41 36 -51 11z"/>
<path d="M292 1579 c-36 -85 -36 -97 0 -119 20 -12 51 -20 78 -20 25 0 65 -9
89 -20 24 -11 45 -19 46 -18 1 2 12 29 24 62 30 82 13 100 -110 115 -42 6 -78
16 -90 27 -18 16 -19 15 -37 -27z m129 -18 c79 -10 85 -13 93 -46 7 -29 -19
-89 -35 -80 -5 4 -40 11 -77 16 -37 5 -74 12 -84 15 -22 7 -32 51 -17 86 10
23 16 28 33 23 12 -3 51 -10 87 -14z"/>
<path d="M391 1526 c-14 -16 -9 -46 7 -46 5 0 15 7 22 16 11 12 11 18 -2 30
-13 13 -16 13 -27 0z"/>
<path d="M2095 1520 c-1 -3 -6 -28 -10 -57 -8 -61 -1 -66 97 -62 35 2 73 -1
85 -5 19 -6 23 -3 28 31 3 21 8 46 10 55 1 10 -2 22 -9 27 -12 10 -196 20
-201 11z m181 -32 c6 -13 8 -33 6 -44 -3 -19 -12 -22 -80 -28 -67 -6 -78 -5
-90 11 -7 10 -12 29 -10 43 3 21 9 26 48 31 96 13 116 11 126 -13z"/>
<path d="M2180 1459 c0 -24 23 -21 28 4 2 10 -3 17 -12 17 -10 0 -16 -9 -16
-21z"/>
<path d="M1840 1449 c-35 -13 -69 -19 -94 -15 l-38 4 7 -66 c6 -65 21 -92 51
-92 6 0 42 9 80 21 41 13 81 19 101 16 l34 -6 -7 72 c-4 40 -8 73 -9 75 -11
13 -79 8 -125 -9z m103 -25 c26 -35 19 -78 -13 -82 -14 -2 -51 -12 -83 -23
-74 -25 -80 -24 -100 10 -20 34 -22 70 -4 75 6 2 41 13 77 24 85 27 102 26
123 -4z"/>
<path d="M1826 1391 c-9 -14 4 -41 19 -41 18 0 26 15 19 34 -7 17 -29 21 -38
7z"/>
<path d="M260 1365 c-19 -7 -52 -14 -72 -14 l-38 -1 6 -47 c3 -27 7 -54 10
-60 5 -18 64 -16 107 2 20 8 52 15 70 15 37 0 36 -5 22 83 -5 34 -8 37 -38 36
-18 0 -48 -7 -67 -14z m79 -9 c7 -8 13 -26 14 -41 2 -25 -3 -29 -72 -52 l-75
-25 -18 22 c-26 32 -24 70 5 71 12 0 42 9 67 19 55 23 64 24 79 6z"/>
<path d="M254 1316 c-4 -10 -2 -22 4 -28 8 -8 13 -7 18 6 4 10 2 22 -4 28 -8
8 -13 7 -18 -6z"/>
<path d="M310 1320 c0 -5 5 -10 11 -10 5 0 7 5 4 10 -3 6 -8 10 -11 10 -2 0
-4 -4 -4 -10z"/>
<path d="M200 1290 c0 -5 5 -10 11 -10 5 0 7 5 4 10 -3 6 -8 10 -11 10 -2 0
-4 -4 -4 -10z"/>
<path d="M506 1359 c-2 -8 -8 -38 -14 -67 -13 -71 2 -82 116 -82 46 0 92 -5
104 -11 11 -6 22 -9 24 -6 3 2 10 32 16 66 16 86 6 95 -109 96 -49 1 -98 5
-110 9 -16 6 -24 4 -27 -5z m220 -44 c11 -17 13 -32 7 -55 l-9 -32 -79 -3
c-112 -3 -123 1 -131 40 -12 66 -5 71 101 72 90 2 96 0 111 -22z"/>
<path d="M606 1294 c-7 -19 12 -47 25 -38 5 3 9 16 9 30 0 27 -24 33 -34 8z"/>
<path d="M545 1280 c3 -5 8 -10 11 -10 2 0 4 5 4 10 0 6 -5 10 -11 10 -5 0 -7
-4 -4 -10z"/>
<path d="M685 1280 c-3 -5 -1 -10 4 -10 6 0 11 5 11 10 0 6 -2 10 -4 10 -3 0
-8 -4 -11 -10z"/>
<path d="M2145 1329 c-22 -6 -55 -7 -72 -4 l-33 6 0 -60 c0 -57 2 -61 26 -67
15 -4 48 -2 75 4 27 7 62 9 79 6 l30 -6 0 61 c0 42 -4 61 -12 61 -7 0 -22 2
-33 4 -11 3 -38 0 -60 -5z m81 -26 c15 -20 18 -59 7 -66 -5 -3 -42 -8 -85 -12
-72 -7 -77 -6 -88 15 -6 12 -9 32 -6 45 5 20 14 24 54 28 99 7 105 7 118 -10z"/>
<path d="M2134 1275 c-7 -17 4 -37 17 -30 12 8 12 45 -1 45 -6 0 -13 -7 -16
-15z"/>
<path d="M1795 1238 c-22 -5 -59 -7 -83 -4 l-43 6 3 -82 c3 -81 3 -82 33 -90
20 -5 53 -3 96 8 37 8 86 14 110 12 l44 -3 3 68 c2 42 -2 74 -9 83 -13 16 -92
17 -154 2z m129 -34 c10 -14 16 -39 14 -57 -3 -29 -7 -32 -38 -35 -19 -1 -66
-10 -105 -18 l-70 -15 -23 28 c-13 17 -20 36 -17 48 2 11 5 28 5 38 0 14 9 17
48 18 26 1 58 5 72 9 14 4 41 8 61 9 29 1 40 -4 53 -25z"/>
<path d="M1797 1183 c-4 -3 -7 -17 -7 -30 0 -16 6 -23 20 -23 16 0 20 7 20 30
0 28 -17 40 -33 23z"/>
<path d="M1880 1170 c0 -5 5 -10 10 -10 6 0 10 5 10 10 0 6 -4 10 -10 10 -5 0
-10 -4 -10 -10z"/>
<path d="M1720 1150 c0 -5 5 -10 10 -10 6 0 10 5 10 10 0 6 -4 10 -10 10 -5 0
-10 -4 -10 -10z"/>
<path d="M405 1200 c-17 -4 -52 -19 -78 -34 -26 -16 -62 -30 -80 -31 -36 -3
-36 -6 -9 -90 22 -64 38 -67 127 -20 40 20 82 35 103 35 31 0 34 2 28 23 -4
12 -12 43 -18 69 -12 50 -24 58 -73 48z m35 -30 c11 -11 23 -33 26 -49 6 -26
2 -29 -81 -69 -97 -47 -116 -45 -136 15 -12 37 -6 53 19 53 9 0 44 16 77 35
33 19 63 35 68 35 4 0 16 -9 27 -20z"/>
<path d="M410 1130 c0 -5 5 -10 10 -10 6 0 10 5 10 10 0 6 -4 10 -10 10 -5 0
-10 -4 -10 -10z"/>
<path d="M341 1117 c-13 -17 10 -54 27 -43 16 10 15 31 -2 45 -10 8 -16 8 -25
-2z"/>
<path d="M285 1070 c3 -5 8 -10 11 -10 2 0 4 5 4 10 0 6 -5 10 -11 10 -5 0 -7
-4 -4 -10z"/>
<path d="M664 1090 c-33 -23 -71 -40 -86 -40 -34 0 -35 -11 -7 -84 19 -48 25
-56 48 -56 14 0 55 18 91 40 36 22 77 40 93 40 33 0 34 11 6 85 -19 51 -23 55
-53 55 -22 0 -53 -13 -92 -40z m109 6 c23 -17 36 -86 16 -86 -7 0 -44 -19 -81
-41 -62 -38 -71 -41 -93 -29 -39 21 -48 85 -12 96 12 4 44 22 72 40 54 37 71
40 98 20z"/>
<path d="M673 1034 c-3 -8 1 -23 10 -32 15 -14 17 -14 23 1 8 21 -1 47 -16 47
-6 0 -13 -7 -17 -16z"/>
<path d="M620 990 c0 -5 5 -10 11 -10 5 0 7 5 4 10 -3 6 -8 10 -11 10 -2 0 -4
-4 -4 -10z"/>
<path d="M2500 821 c-89 -29 -141 -85 -147 -159 -9 -102 59 -160 227 -193 116
-22 147 -37 156 -75 10 -38 -11 -73 -53 -91 -57 -23 -173 -14 -240 20 l-52 27
-26 -34 c-14 -18 -25 -36 -25 -39 0 -12 100 -57 162 -73 81 -21 163 -14 231
20 70 34 100 75 105 146 7 101 -55 156 -205 184 -151 28 -205 67 -173 126 34
64 141 79 242 33 l60 -27 19 25 c31 40 24 55 -38 85 -44 20 -76 27 -137 30
-45 2 -92 0 -106 -5z"/>
<path d="M3487 813 c-4 -3 -7 -138 -7 -298 0 -323 -1 -319 62 -313 l33 3 5
135 c6 154 16 181 78 207 48 20 98 8 126 -30 18 -25 22 -47 26 -170 l5 -142
45 0 45 0 3 125 c2 70 -2 145 -8 170 -14 54 -50 104 -90 125 -42 22 -132 19
-182 -5 -23 -11 -43 -20 -45 -20 -2 0 -3 50 -3 110 l0 110 -43 0 c-24 0 -47
-3 -50 -7z"/>
<path d="M5607 813 c-4 -3 -7 -137 -7 -298 0 -312 0 -315 51 -315 57 0 59 4
59 111 l0 99 63 0 63 0 61 -72 c116 -137 117 -138 167 -138 25 0 47 4 51 9 3
5 -31 52 -75 104 -44 52 -80 97 -80 101 0 3 15 13 33 22 76 39 110 93 110 174
0 101 -48 168 -137 195 -51 15 -346 22 -359 8z m370 -128 c32 -32 35 -39 30
-78 -4 -30 -15 -50 -37 -69 -29 -27 -34 -28 -145 -28 l-115 0 0 105 0 105 116
0 116 0 35 -35z"/>
<path d="M6752 513 l3 -308 40 0 40 0 3 80 c2 44 6 83 10 87 4 4 45 -33 91
-82 82 -90 83 -90 131 -90 27 0 52 4 55 10 3 5 -37 55 -90 111 -52 56 -95 105
-95 108 0 3 39 51 86 106 l86 100 -38 3 c-62 5 -79 -4 -150 -87 -37 -44 -71
-78 -74 -75 -3 3 -7 81 -10 172 l-5 167 -43 3 -42 3 2 -308z"/>
<path d="M8300 751 c-22 -6 -25 -13 -28 -59 l-3 -52 -40 0 -39 0 0 -45 0 -45
40 0 40 0 1 -117 c0 -139 11 -179 59 -211 29 -20 44 -23 93 -20 69 5 83 16 70
55 -8 25 -15 28 -55 31 -27 2 -52 10 -60 19 -8 11 -14 55 -17 129 l-3 113 63
3 64 3 0 40 0 40 -62 3 -63 3 0 59 c0 65 -3 67 -60 51z"/>
<path d="M3057 636 c-92 -25 -146 -105 -147 -214 0 -138 78 -222 208 -222 44
0 71 6 106 25 26 14 49 25 50 25 2 0 7 -11 10 -25 5 -19 13 -25 34 -25 50 0
52 8 52 227 l0 203 -45 0 c-38 0 -45 -3 -45 -20 0 -25 -5 -25 -39 0 -25 17
-99 40 -126 39 -5 0 -32 -6 -58 -13z m145 -97 c78 -31 88 -163 17 -224 -51
-42 -155 -31 -192 19 -20 29 -29 91 -18 128 25 83 101 113 193 77z"/>
<path d="M4148 636 c-61 -16 -92 -38 -126 -88 -24 -37 -27 -51 -27 -128 0 -80
2 -90 29 -129 43 -62 99 -91 175 -91 42 0 74 6 101 20 49 25 56 25 63 0 8 -30
72 -28 81 2 8 30 8 372 0 392 -4 11 -19 16 -45 16 -32 0 -39 -4 -39 -20 0 -18
-2 -18 -47 5 -61 30 -106 36 -165 21z m142 -101 c80 -42 78 -190 -3 -232 -44
-22 -130 -13 -162 17 -56 52 -53 155 6 204 36 31 111 36 159 11z"/>
<path d="M4738 635 c-26 -6 -53 -17 -61 -24 -12 -9 -16 -8 -21 4 -3 10 -19 15
-46 15 l-40 0 2 -212 3 -213 40 0 40 0 6 140 c3 78 11 150 18 162 13 26 60 53
91 53 32 0 78 -27 86 -52 3 -12 9 -85 13 -162 l6 -141 40 0 40 0 5 142 c4 124
8 145 26 170 40 53 119 56 151 6 14 -22 19 -56 23 -172 l5 -146 33 -3 c61 -6
65 5 60 168 -3 131 -6 149 -28 188 -28 49 -50 66 -109 82 -34 9 -53 8 -97 -5
-30 -9 -64 -25 -75 -36 l-21 -21 -38 27 c-52 36 -96 45 -152 30z"/>
<path d="M7800 637 c-84 -24 -132 -76 -150 -164 -13 -62 -3 -122 31 -183 53
-94 193 -124 291 -62 l32 20 11 -21 c8 -16 20 -22 45 -22 l35 0 0 215 c0 200
-1 215 -18 218 -33 6 -67 -7 -67 -27 0 -17 -3 -16 -47 5 -63 30 -108 36 -163
21z m144 -101 c43 -18 60 -60 54 -133 -4 -48 -10 -61 -37 -85 -26 -23 -41 -28
-82 -28 -63 0 -102 20 -123 64 -29 62 -12 147 38 181 26 19 106 19 150 1z"/>
<path d="M6282 624 c-74 -38 -112 -110 -112 -215 0 -68 29 -129 83 -173 52
-41 150 -49 222 -17 59 26 61 26 68 0 4 -16 12 -20 39 -17 l33 3 0 215 0 215
-33 3 c-27 3 -34 -1 -42 -23 l-10 -26 -33 23 c-42 30 -165 37 -215 12z m187
-89 c53 -27 77 -116 46 -175 -26 -49 -61 -70 -122 -70 -49 0 -59 4 -88 33 -59
59 -59 135 0 194 29 29 40 33 84 33 29 0 65 -7 80 -15z"/>
<path d="M7173 633 c-8 -6 -3 -27 17 -78 87 -212 130 -327 130 -346 0 -11 -16
-58 -36 -104 -20 -46 -33 -89 -29 -94 9 -15 80 -14 92 1 14 18 263 598 263
613 0 3 -23 5 -51 3 l-52 -3 -60 -147 c-33 -82 -62 -148 -66 -148 -3 0 -28 64
-56 141 -27 77 -53 145 -56 151 -8 13 -81 21 -96 11z"/>
</g>
</svg>
