<?xml version="1.0" standalone="no"?>
<!DOCTYPE svg PUBLIC "-//W3C//DTD SVG 20010904//EN"
 "http://www.w3.org/TR/2001/REC-SVG-20010904/DTD/svg10.dtd">
<svg version="1.0" xmlns="http://www.w3.org/2000/svg"
 width="590.000000pt" height="85.000000pt" viewBox="0 0 590.000000 85.000000"
 preserveAspectRatio="xMidYMid meet">

<g transform="translate(0.000000,85.000000) scale(0.100000,-0.100000)"
fill="#000000" stroke="none">
<path d="M540 425 l0 -405 60 0 60 0 0 234 0 234 31 11 c18 6 52 11 76 11 38
0 51 -6 79 -34 l34 -34 0 -211 0 -211 60 0 60 0 0 225 c0 204 -2 229 -20 264
-25 50 -71 88 -123 102 -42 11 -146 8 -179 -6 -17 -7 -18 2 -18 109 l0 116
-60 0 -60 0 0 -405z"/>
<path d="M2093 793 l-63 -35 0 -74 0 -74 -110 0 -110 0 0 105 c0 58 -3 105 -6
105 -4 0 -31 -14 -60 -31 l-54 -30 0 -75 0 -74 -30 0 -30 0 0 -60 0 -60 30 0
30 0 0 -152 c0 -84 5 -171 11 -193 22 -78 96 -125 202 -125 l47 0 0 60 c0 60
0 60 -30 60 -16 0 -40 5 -53 11 -45 20 -52 45 -55 197 l-4 142 110 0 109 0 5
-168 c4 -155 6 -171 29 -212 31 -55 83 -83 166 -88 l63 -4 0 61 0 61 -36 0
c-26 0 -43 8 -65 29 l-29 29 0 146 0 146 70 0 70 0 0 60 0 60 -70 0 -69 0 -3
108 -3 109 -62 -34z"/>
<path d="M3868 795 l-57 -30 -3 -75 -3 -75 -32 -3 -33 -3 0 -60 0 -59 35 0 35
0 0 -165 c0 -181 7 -211 56 -256 37 -33 84 -49 145 -49 l49 0 0 60 0 60 -36 0
c-26 0 -43 8 -65 29 l-29 29 0 146 0 146 69 0 69 0 4 60 3 60 -72 0 -72 0 -3
108 -3 107 -57 -30z"/>
<path d="M5230 425 l0 -405 60 0 60 0 0 90 c0 67 4 97 16 115 9 14 20 25 24
25 5 0 48 -52 97 -115 l88 -114 73 -1 c58 0 71 3 65 13 -4 8 -58 78 -120 158
-62 79 -112 149 -112 154 0 6 49 65 109 132 61 67 110 125 110 128 0 3 -33 5
-72 5 l-73 -1 -100 -115 -100 -115 -3 225 -2 226 -60 0 -60 0 0 -405z"/>
<path d="M5797 609 c-31 -23 -34 -45 -11 -77 19 -27 64 -29 87 -4 49 54 -19
127 -76 81z m61 -5 c24 -17 29 -53 10 -72 -27 -27 -88 -3 -88 34 0 15 35 54
48 54 4 0 18 -7 30 -16z"/>
<path d="M5811 568 c0 -18 3 -27 6 -20 3 9 9 10 17 2 10 -8 13 -3 12 17 -1 18
-7 29 -18 31 -14 3 -18 -3 -17 -30z m29 12 c0 -5 -4 -10 -10 -10 -5 0 -10 5
-10 10 0 6 5 10 10 10 6 0 10 -4 10 -10z"/>
<path d="M155 604 c-83 -31 -135 -113 -120 -193 16 -85 60 -119 189 -145 44
-9 88 -24 98 -33 28 -25 23 -69 -9 -90 -34 -22 -144 -22 -216 1 l-48 14 -23
-51 c-26 -60 -27 -59 60 -82 131 -34 284 -9 338 56 70 83 49 212 -41 257 -21
11 -73 27 -116 35 -90 18 -107 29 -107 67 0 58 75 82 170 55 30 -9 61 -17 68
-18 16 -2 57 92 45 104 -16 16 -129 39 -188 38 -33 0 -78 -7 -100 -15z"/>
<path d="M2495 604 c-48 -18 -93 -58 -111 -101 -19 -45 -19 -330 0 -376 18
-44 77 -94 128 -108 60 -16 164 -7 215 19 38 20 83 64 83 82 0 5 -22 22 -49
39 -40 24 -50 27 -55 15 -3 -8 -26 -24 -51 -35 -88 -39 -165 4 -165 90 l0 31
170 0 170 0 0 103 c0 119 -21 176 -79 214 -66 44 -177 56 -256 27z m184 -129
c15 -15 25 -38 28 -69 l6 -46 -112 0 -111 0 0 36 c0 56 22 88 75 106 33 11 88
-2 114 -27z"/>
<path d="M3055 608 c-50 -17 -96 -58 -116 -102 -16 -36 -19 -68 -19 -263 l0
-223 60 0 60 0 0 211 0 211 29 29 c26 25 37 29 85 29 l56 0 0 60 0 60 -62 -1
c-35 0 -76 -5 -93 -11z"/>
<path d="M3388 606 c-91 -32 -128 -81 -128 -166 0 -95 39 -138 150 -165 36 -8
82 -20 103 -26 78 -21 69 -97 -14 -119 -43 -12 -162 0 -200 20 -25 14 -24 15
-49 -41 -24 -58 -23 -60 40 -80 55 -16 200 -23 246 -10 86 23 143 81 151 154
12 103 -43 166 -166 192 -107 23 -130 34 -138 63 -8 35 7 54 54 71 36 13 48
13 104 -1 35 -9 71 -19 79 -22 11 -5 21 8 36 48 l22 55 -27 10 c-86 33 -197
40 -263 17z"/>
<path d="M4826 606 c-44 -16 -90 -57 -114 -101 -14 -24 -17 -60 -17 -190 0
-178 5 -197 69 -253 72 -63 216 -70 304 -15 45 28 99 101 84 114 -4 3 -28 13
-53 23 l-46 17 -36 -36 c-32 -32 -40 -35 -91 -35 -47 0 -61 4 -81 25 -24 23
-25 29 -25 160 0 131 1 137 25 160 20 21 34 25 81 25 51 0 59 -3 91 -35 l36
-36 46 17 c25 10 49 20 53 23 15 13 -39 86 -85 115 -40 24 -61 30 -125 33 -50
2 -90 -2 -116 -11z"/>
<path d="M1090 383 c0 -210 2 -230 21 -270 15 -30 35 -52 67 -71 43 -25 56
-27 147 -27 70 0 119 6 163 19 l62 19 0 279 0 278 -60 0 -60 0 0 -240 0 -239
-41 -11 c-57 -16 -117 -4 -151 30 l-28 28 0 216 0 216 -60 0 -60 0 0 -227z"/>
<path d="M4235 596 c-72 -31 -108 -110 -103 -224 l3 -67 63 -3 62 -3 0 79 c0
47 5 83 12 90 7 7 42 12 85 12 l73 0 0 65 0 65 -82 0 c-46 -1 -97 -7 -113 -14z"/>
<path d="M4500 253 c0 -43 -5 -85 -10 -93 -6 -10 -32 -16 -84 -18 l-76 -4 0
-59 0 -59 80 0 c95 0 134 14 177 63 34 39 47 99 41 192 l-3 50 -62 3 -63 3 0
-78z"/>
</g>
</svg>
